<svg width="20" height="18" viewBox="0 0 20 18" fill="none" xmlns="http://www.w3.org/2000/svg">
<path d="M19.8569 8.99949C19.8503 8.28549 19.5626 7.60286 19.0562 7.0995L13.2341 1.26379C12.9798 1.01102 12.6358 0.869141 12.2773 0.869141C11.9188 0.869141 11.5748 1.01102 11.3205 1.26379C11.1933 1.38995 11.0923 1.54005 11.0234 1.70543C10.9545 1.87081 10.9191 2.0482 10.9191 2.22736C10.9191 2.40652 10.9545 2.5839 11.0234 2.74928C11.0923 2.91466 11.1933 3.06476 11.3205 3.19093L15.7855 7.64235H2.21408C1.85414 7.64235 1.50895 7.78534 1.25443 8.03985C0.999918 8.29436 0.856934 8.63956 0.856934 8.99949C0.856934 9.35943 0.999918 9.70462 1.25443 9.95914C1.50895 10.2136 1.85414 10.3566 2.21408 10.3566H15.7855L11.3205 14.8216C11.0649 15.0754 10.9207 15.4203 10.9194 15.7804C10.9181 16.1405 11.06 16.4864 11.3137 16.742C11.5675 16.9975 11.9124 17.1418 12.2725 17.1431C12.6326 17.1444 12.9785 17.0025 13.2341 16.7488L19.0562 10.9131C19.5659 10.4064 19.8539 9.7182 19.8569 8.99949Z" fill="white"/>
</svg>
