<svg width="211" height="211" viewBox="0 0 211 211" fill="none" xmlns="http://www.w3.org/2000/svg">
<path d="M51.0301 157.153C73.0679 179.262 66.7764 193.137 81.8515 203.369C105.048 219.113 148.3 205.512 173.806 183.805C205.045 157.218 221.131 108.711 202.717 64.8577C183.107 18.1555 131.6 -6.05148 85.6656 1.29866C44.6467 7.86251 4.3474 40.1852 0.341265 78.9142C-0.0932603 83.1123 -2.00609 105.803 11.5722 125.353C22.7963 141.511 33.5606 139.627 51.0301 157.153Z" fill="#CADDFF"/>
<path d="M98.6036 193.216C95.6183 189.923 112.591 181.99 111.221 169.586C109.968 158.254 94.8941 156.691 94.3802 146.252C93.8308 135.082 110.82 131.334 109.792 119.99C109 111.248 98.6738 110.863 96.992 101.589C94.9711 90.445 109.267 87.6333 112.603 72.3697C115.718 58.1143 105.038 52.377 111.385 40.7345C112.212 39.2182 117.396 30.1403 125.841 29.2437C139.579 27.7838 159.368 48.2467 158.497 67.5946C157.763 83.8858 142.931 87.1976 143.614 104.371C144.192 118.926 155 120.384 152.582 131.936C149.721 145.608 133.629 148.132 131.668 163.426C130.64 171.436 134.731 173.268 132.046 179.112C126.373 191.456 101.895 196.847 98.6036 193.216Z" fill="#99B9FF"/>
<path d="M103.981 190.752C103.832 190.752 103.689 190.663 103.629 190.516C103.548 190.322 103.641 190.099 103.835 190.019C113.97 185.835 120.12 180.726 122.114 174.832C123.596 170.455 122.197 167.086 120.716 163.521C119.132 159.705 117.493 155.759 118.829 150.1C120.236 144.134 123.442 141.245 126.542 138.45C129.38 135.893 132.06 133.477 132.905 128.837C134.099 122.274 130.448 118.133 126.583 113.749C122.794 109.452 118.876 105.009 119.62 98.0694C120.218 92.4872 123.443 89.0283 126.857 85.3658C130.567 81.3873 134.402 77.2743 135.768 69.8908C136.788 64.3834 136.103 58.6449 133.733 52.834C133.653 52.6385 133.746 52.4167 133.942 52.3374C134.137 52.2569 134.359 52.3512 134.438 52.5466C136.865 58.4943 137.565 64.3765 136.518 70.0299C135.111 77.6318 131.022 82.0173 127.415 85.8866C124.089 89.4536 120.949 92.8217 120.377 98.151C119.669 104.757 123.474 109.073 127.154 113.246C130.969 117.572 134.915 122.048 133.654 128.974C132.764 133.871 129.989 136.37 127.052 139.017C124.039 141.732 120.922 144.541 119.569 150.276C118.291 155.695 119.881 159.525 121.42 163.229C122.957 166.931 124.409 170.428 122.835 175.077C120.766 181.189 114.471 186.453 104.125 190.724C104.079 190.743 104.03 190.752 103.981 190.752Z" fill="#CADDFF"/>
<path d="M105.211 207.33C104.092 205.304 115.558 201.073 124.08 185.297C129.241 175.744 130.739 166.74 132.074 158.293C135.378 137.394 130.771 133.778 135.386 123.772C140.926 111.762 149.627 115.396 157.922 102.791C168.152 87.2462 158.442 76.3601 169.093 62.2288C174.912 54.5074 185.831 47.1159 196.235 49.4437C202.531 50.853 209.445 56.0041 210.182 62.23C210.893 68.2397 205.32 70.7768 201.487 78.5235C194.64 92.3559 204.949 99.3278 201.036 113.072C195.725 131.723 173.548 130.085 166.171 152.407C163.199 161.397 166.55 162.41 163.969 170.972C155.26 199.866 107.424 211.338 105.211 207.33Z" fill="#99B9FF"/>
<path d="M113.553 205.681C113.416 205.681 113.284 205.607 113.216 205.479C113.118 205.293 113.189 205.061 113.374 204.963C130.009 196.127 139.966 185.614 142.969 173.715C144.376 168.135 144.122 162.962 143.877 157.959C143.5 150.289 143.145 143.046 148.599 135.128C152.439 129.555 156.928 126.999 160.889 124.744C165.541 122.096 169.559 119.808 171.997 113.55C173.697 109.187 173.438 105.955 173.111 101.864C172.791 97.866 172.428 93.3345 173.795 86.4879C175.145 79.7229 177.711 73.1671 181.421 67.0033C181.529 66.8228 181.763 66.7641 181.944 66.8734C182.124 66.9814 182.183 67.2159 182.074 67.3964C178.409 73.4843 175.875 79.9585 174.542 86.6373C173.196 93.3805 173.554 97.8545 173.871 101.803C174.192 105.825 174.471 109.3 172.707 113.827C170.171 120.337 165.846 122.799 161.266 125.407C157.186 127.73 152.967 130.131 149.227 135.56C143.918 143.266 144.268 150.385 144.638 157.921C144.886 162.979 145.143 168.211 143.708 173.901C142.335 179.341 139.547 184.523 135.416 189.306C130.323 195.205 123.027 200.699 113.733 205.636C113.674 205.666 113.613 205.681 113.553 205.681Z" fill="#CADDFF"/>
<path d="M33.3913 210.618H131.562C135.792 210.618 138.789 207.199 138.255 202.982L114.082 12.018C113.548 7.80145 109.686 4.38273 105.456 4.38273L12.2122 3.29297C1.50887 3.29297 0.0570103 7.8003 0.590395 12.018L24.764 202.982C25.2985 207.199 29.1598 210.618 33.3913 210.618Z" fill="black"/>
<path d="M39.2976 210.618H137.468C141.698 210.618 144.695 207.189 144.162 202.959L119.989 11.3859C119.456 7.15563 115.593 3.72656 111.363 3.72656H13.1927C8.96243 3.72656 5.96559 7.15563 6.49897 11.3859L30.6714 202.959C31.206 207.189 35.0673 210.618 39.2976 210.618Z" fill="#99B9FF"/>
<path d="M138.568 203.222L115.488 20.3031C115.365 19.326 114.473 18.5352 113.497 18.5352H14.7974C13.8203 18.5352 13.1295 19.3272 13.2525 20.3031L36.3329 203.222C36.4559 204.199 37.3479 204.99 38.3239 204.99H137.023C137.999 204.991 138.691 204.199 138.568 203.222Z" fill="#CADDFF"/>
<path d="M137.023 205.371H38.3236C37.1625 205.371 36.1004 204.428 35.9532 203.268L12.8728 20.3503C12.7992 19.7651 12.9613 19.2134 13.3292 18.7949C13.6947 18.3811 14.2155 18.1523 14.796 18.1523H113.495C114.655 18.1523 115.718 19.095 115.864 20.2548L138.946 203.174C139.02 203.759 138.857 204.312 138.488 204.729C138.124 205.143 137.603 205.371 137.023 205.371ZM14.796 18.9156C14.4373 18.9156 14.1201 19.0524 13.9016 19.2996C13.6798 19.5513 13.5832 19.8904 13.6292 20.2548L36.7096 203.174C36.8096 203.965 37.5327 204.608 38.3224 204.608H137.022C137.38 204.608 137.699 204.472 137.916 204.224C138.138 203.973 138.234 203.634 138.188 203.269L115.108 20.3503C115.008 19.5594 114.285 18.9156 113.495 18.9156H14.796Z" fill="#5479F7"/>
<path d="M63.5064 13.469C65.0916 13.469 66.2135 12.1838 66.0135 10.5997C65.8135 9.0145 64.3662 7.73047 62.7822 7.73047C61.197 7.73047 60.075 9.01565 60.275 10.5997C60.4751 12.1849 61.9223 13.469 63.5064 13.469Z" fill="#CADDFF"/>
<path d="M129.346 85.9244C129.156 85.9244 128.992 85.7842 128.968 85.591L126.132 63.1188C126.106 62.9095 126.254 62.7187 126.463 62.6923C126.672 62.667 126.863 62.8141 126.889 63.0233L129.725 85.4956C129.752 85.7049 129.604 85.8957 129.394 85.9221C129.378 85.9233 129.362 85.9244 129.346 85.9244Z" fill="black"/>
<path d="M137.468 210.999H39.2967C34.887 210.999 30.8476 207.414 30.2923 203.005L6.11989 11.4338C5.8463 9.26582 6.43946 7.22884 7.79131 5.6965C9.12823 4.18026 11.0457 3.3457 13.1918 3.3457H111.363C115.772 3.3457 119.811 6.93111 120.368 11.3396L121.736 22.1786C121.762 22.3878 121.614 22.5786 121.405 22.605C121.197 22.6315 121.005 22.4832 120.978 22.274L119.61 11.435C119.1 7.39552 115.401 4.10899 111.362 4.10899H13.1918C11.2687 4.10899 9.55356 4.85275 8.36379 6.2023C7.15907 7.56795 6.63143 9.39227 6.87743 11.3396L31.0499 202.912C31.5591 206.952 35.2595 210.238 39.2978 210.238H137.469C139.393 210.238 141.108 209.494 142.297 208.145C143.502 206.779 144.03 204.954 143.784 203.006L137.85 155.979C137.823 155.77 137.972 155.579 138.181 155.552C138.39 155.528 138.581 155.674 138.607 155.883L144.541 202.911C144.815 205.079 144.222 207.116 142.87 208.65C141.532 210.165 139.613 210.999 137.468 210.999Z" fill="black"/>
<path d="M115.356 23.7639C120.313 23.9639 125.059 29.1943 123.206 36.3214C121.692 42.1438 115.218 42.8186 111.803 45.4568C100.753 53.9921 94.5227 84.6985 78.9017 91.4221C66.4384 96.787 42.3636 92.3843 33.0098 76.7115C24.1147 61.8089 25.0286 42.0081 38.2126 34.75C50.0644 28.2252 58.3916 43.1094 70.8354 37.2261C83.1032 31.4255 83.7021 25.379 90.8614 22.7017C98.5461 19.829 101.306 23.1983 115.356 23.7639Z" fill="black"/>
<path d="M113.682 162.24C115.361 161.854 123.604 159.999 132.132 156.07C138.161 153.293 145.098 148.034 146.591 147.897C147.792 147.786 149.177 147.79 150.85 147.936C155.425 148.334 158.916 149.73 168.863 141.375C180.154 131.892 159.865 138.327 159.865 138.327C159.865 138.327 163.044 134.766 163.371 133.596C163.756 132.216 163.098 131.262 160.093 133.168C155.323 136.192 156.48 137.135 152.049 138.977C150.237 139.732 138.2 143.749 126.665 144.309C116.136 144.821 106.855 143.208 106.855 143.208C106.855 143.208 102.799 164.733 113.682 162.24Z" fill="white"/>
<path d="M112.025 162.821C110.619 162.821 109.43 162.36 108.476 161.443C103.918 157.06 106.373 143.702 106.48 143.137C106.518 142.932 106.715 142.795 106.92 142.832C107.012 142.848 116.286 144.432 126.646 143.928C138.195 143.367 150.178 139.342 151.902 138.625C154.27 137.64 154.969 136.946 155.936 135.987C156.725 135.204 157.708 134.228 159.889 132.845C161.613 131.753 162.764 131.456 163.412 131.938C163.848 132.262 163.965 132.887 163.738 133.699C163.5 134.551 162.006 136.412 161.014 137.584C162.115 137.266 163.801 136.805 165.523 136.436C171.041 135.253 172.162 135.992 172.525 136.652C173.076 137.653 171.991 139.247 169.11 141.668C159.999 149.321 156.167 148.898 152.112 148.449C151.686 148.402 151.258 148.354 150.818 148.315C149.224 148.176 147.854 148.164 146.627 148.276C146.014 148.333 143.932 149.641 141.727 151.027C138.955 152.769 135.505 154.937 132.294 156.416C128.447 158.188 122.127 160.698 113.853 162.593L113.769 162.612C113.154 162.751 112.573 162.821 112.025 162.821ZM113.681 162.24H113.684H113.681ZM107.166 143.644C106.803 145.832 105.142 157.178 109.005 160.894C110.15 161.995 111.653 162.313 113.596 161.867L113.68 161.848C121.89 159.968 128.159 157.479 131.972 155.723C135.139 154.264 138.565 152.111 141.319 150.381C144.238 148.546 145.796 147.587 146.555 147.516C147.826 147.4 149.242 147.413 150.882 147.556C151.327 147.595 151.761 147.642 152.193 147.69C156.082 148.12 159.756 148.527 168.618 141.084C172.092 138.166 171.974 137.236 171.856 137.02C171.179 135.789 164.504 137.256 159.98 138.69C159.817 138.742 159.638 138.679 159.545 138.534C159.451 138.39 159.465 138.201 159.58 138.073C160.834 136.668 162.782 134.289 163.003 133.494C163.133 133.03 163.115 132.669 162.956 132.551C162.866 132.483 162.313 132.213 160.296 133.49C158.185 134.829 157.274 135.731 156.472 136.528C155.482 137.511 154.7 138.287 152.194 139.329C150.451 140.055 138.34 144.124 126.683 144.69C117.415 145.14 109.015 143.934 107.166 143.644Z" fill="black"/>
<path d="M45.1762 104.799C42.4955 111.529 38.356 125.177 36.4444 131.616C35.8983 133.455 37.1329 135.344 39.0366 135.582L61.5456 138.398C61.5456 138.398 69.6982 162.712 42.1587 204.545C42.1576 204.546 42.092 204.988 42.092 204.988L124.289 204.819L124.6 204.547C124.6 204.547 122.754 182.257 122.754 175.689C122.754 167.914 121.787 152.528 123.564 142.752C125.341 132.977 134.672 129.645 134.672 129.645C134.672 129.645 135.611 102.147 129.118 95.4329C113.146 78.9141 57.6499 73.486 45.1762 104.799Z" fill="#5479F7"/>
<path d="M124.679 204.248C124.484 204.248 124.317 204.098 124.3 203.9C124.28 203.681 122.373 181.976 122.373 175.69C122.373 173.892 122.323 171.733 122.264 169.232C122.076 161.214 121.818 150.233 123.191 142.684C124.823 133.705 132.792 130.007 134.3 129.383C134.371 126.621 134.827 101.884 128.845 95.6971C124.168 90.8599 115.729 86.7802 105.694 84.5041C95.2603 82.1383 84.1823 81.8866 74.4997 83.796C64.3275 85.8019 51.0446 91.099 45.5314 104.941C42.7874 111.829 38.4617 126.155 36.7305 131.996C36.5271 132.682 36.642 133.416 37.0455 134.007C37.449 134.599 38.0916 134.972 38.8055 135.033L61.2352 136.932C61.387 136.945 61.5168 137.047 61.5651 137.191C61.6513 137.449 63.6688 143.655 62.4181 155.018C61.2674 165.471 56.9819 182.418 43.1036 203.797C42.9886 203.974 42.753 204.025 42.5759 203.91C42.3989 203.795 42.3495 203.559 42.4633 203.382C56.2405 182.158 60.503 165.354 61.6525 154.994C62.7629 144.992 61.264 138.912 60.9122 137.669L38.7411 135.792C37.7973 135.711 36.9489 135.217 36.4156 134.435C35.8822 133.654 35.7304 132.685 35.9994 131.778C37.7341 125.928 42.0678 111.575 44.8233 104.658C50.4641 90.4978 63.9953 85.0904 74.3526 83.0476C84.1374 81.1176 95.3282 81.3705 105.863 83.7592C116.039 86.0675 124.616 90.2253 129.394 95.166C135.924 101.92 135.093 128.528 135.055 129.657C135.049 129.813 134.949 129.95 134.802 130.003C134.711 130.036 125.656 133.384 123.941 142.82C122.583 150.292 122.84 161.228 123.027 169.212C123.086 171.717 123.137 173.882 123.137 175.688C123.137 181.941 125.041 203.612 125.061 203.831C125.079 204.04 124.924 204.226 124.715 204.244C124.701 204.248 124.691 204.248 124.679 204.248Z" fill="black"/>
<path d="M63.867 129.84C63.7865 129.84 63.7049 129.815 63.6359 129.762C60.3908 127.28 48.7667 122.502 41.8131 126.444C41.6303 126.549 41.397 126.484 41.2935 126.301C41.1901 126.118 41.2544 125.885 41.4372 125.781C48.6942 121.665 60.7448 126.589 64.0992 129.156C64.267 129.284 64.2981 129.523 64.1705 129.691C64.0946 129.788 63.9819 129.84 63.867 129.84Z" fill="black"/>
<path d="M161.727 138.163L140.869 128.314L141.102 88.8828L165.906 99.8L161.727 138.163Z" fill="white"/>
<path d="M106.387 138.616L148.522 127.424L141.102 88.8828L106.387 99.7172V138.616Z" fill="white"/>
<path d="M131.271 149.184L165.681 138.472L165.907 99.8008L131.498 110.511L131.271 149.184Z" fill="#CADDFF"/>
<path d="M131.271 149.566C131.191 149.566 131.11 149.541 131.045 149.491C130.947 149.419 130.889 149.304 130.891 149.183L131.117 110.51C131.118 110.345 131.226 110.198 131.385 110.148L165.794 99.437C165.91 99.4013 166.037 99.422 166.134 99.4945C166.232 99.5669 166.289 99.6818 166.288 99.8025L166.062 138.474C166.061 138.64 165.953 138.787 165.794 138.836L131.385 149.548C131.348 149.56 131.309 149.566 131.271 149.566ZM131.877 110.793L131.655 148.665L165.3 138.191L165.522 100.32L131.877 110.793Z" fill="black"/>
<path d="M131.469 149.184L106.08 138.944V100.045L131.469 110.285V149.184Z" fill="#99B9FF"/>
<path d="M131.47 149.565C131.421 149.565 131.373 149.556 131.327 149.538L105.938 139.298C105.795 139.239 105.699 139.1 105.699 138.944V100.046C105.699 99.9192 105.762 99.8008 105.867 99.7295C105.972 99.6583 106.105 99.6445 106.223 99.6916L131.612 109.932C131.756 109.99 131.851 110.131 131.851 110.286V149.185C131.851 149.311 131.788 149.43 131.683 149.501C131.619 149.542 131.544 149.565 131.47 149.565ZM106.463 138.686L131.089 148.619V110.543L106.463 100.61V138.686Z" fill="black"/>
<path d="M106.081 100.426C105.919 100.426 105.769 100.322 105.717 100.16C105.653 99.9603 105.765 99.7454 105.965 99.681L140.986 88.5202C141.075 88.4914 141.17 88.4972 141.255 88.534L166.059 99.45C166.252 99.535 166.339 99.7603 166.254 99.9523C166.169 100.144 165.945 100.232 165.752 100.148L141.081 89.2892L106.196 100.406C106.158 100.42 106.119 100.426 106.081 100.426Z" fill="black"/>
<path d="M145.547 106.523L145.568 114.199L152.608 112.121L152.588 104.359L145.547 106.523Z" fill="#99B9FF"/>
<path d="M145.45 105.757L141.314 103.277L147.486 101.113L152.258 103.658L145.45 105.757Z" fill="#99B9FF"/>
<path d="M98.2696 45.0027C100.397 46.066 100.117 48.3628 101.804 48.7629C102.387 48.9008 109.593 47.8547 114.384 37.8629C114.947 36.687 117.837 37.3353 119.25 41.3587C120.483 44.8682 119.387 47.0202 123.358 51.5263C123.739 51.9586 123.43 52.6667 122.975 53.0196L120.565 55.1094C120.056 55.506 119.637 56.8188 119.587 57.4625C119.427 59.4524 119.238 63.6654 118.568 64.2391C116.343 66.1461 110.488 65.0357 110.488 65.0357L104.985 83.3823C104.574 85.9711 107.99 87.2654 107.99 87.2654C110.19 88.1529 102.57 91.1762 92.2748 90.6807C86.8547 90.4198 82.6704 88.5587 80.4863 87.3493C79.7 86.9137 79.639 85.8113 80.3713 85.2917C81.0909 84.7813 82.0071 84.0766 83.006 83.1731C88.8871 77.8634 94.7716 69.0418 96.3648 56.3946C96.6143 54.4151 93.2185 54.2542 92.9461 50.5607C92.6622 46.7098 96.1142 43.9256 98.2696 45.0027Z" fill="white"/>
<path d="M94.4855 91.114C93.7533 91.114 93.0084 91.0968 92.2554 91.0611C86.6779 90.7921 82.3717 88.8287 80.3003 87.6826C79.8163 87.4148 79.5082 86.9251 79.4772 86.3733C79.4461 85.8215 79.6979 85.3008 80.1497 84.9801C81.0336 84.3536 81.9084 83.65 82.7499 82.8902C86.9193 79.1266 94.182 70.6729 95.9857 56.3474C96.0661 55.7048 95.6431 55.3059 94.8879 54.6576C93.9257 53.8311 92.729 52.8034 92.5647 50.5894C92.4037 48.4041 93.4107 46.2464 95.1304 45.0946C96.2639 44.3359 97.4697 44.1784 98.4388 44.6624C99.6251 45.2555 100.14 46.2142 100.554 46.9833C100.93 47.6822 101.226 48.2351 101.892 48.3926C101.943 48.3949 109.133 47.9328 114.039 37.6985C114.278 37.2007 114.82 36.9225 115.469 36.9605C116.808 37.034 118.607 38.3836 119.609 41.2321C120.002 42.3529 120.164 43.3335 120.321 44.2819C120.658 46.3211 120.977 48.2478 123.644 51.2733C123.845 51.501 123.934 51.7929 123.904 52.116C123.863 52.5574 123.596 53.0183 123.209 53.3207L120.813 55.3979C120.412 55.7106 120.012 56.9026 119.965 57.4935C119.942 57.7866 119.918 58.128 119.891 58.4982C119.636 62.1043 119.399 64.0275 118.815 64.5287C116.772 66.2806 112.07 65.6793 110.755 65.4678L105.357 83.4661C105.023 85.7066 108.093 86.8963 108.124 86.9078C108.793 87.178 108.773 87.624 108.734 87.8033C108.418 89.2471 102.128 91.114 94.4855 91.114ZM97.2421 45.1486C96.7099 45.1486 96.1271 45.344 95.5557 45.7268C94.42 46.4878 93.1544 48.2029 93.3268 50.5319C93.467 52.4298 94.4867 53.3057 95.3856 54.0782C96.1535 54.7381 96.8789 55.3611 96.7432 56.4417C94.9086 71.012 87.509 79.6209 83.2615 83.4558C82.397 84.2363 81.4992 84.9582 80.5911 85.602C80.3508 85.7721 80.2232 86.0376 80.2393 86.3296C80.2554 86.6228 80.4129 86.8722 80.6704 87.0147C82.6832 88.1286 86.8687 90.038 92.2922 90.299C97.5065 90.5507 101.503 89.8713 103.421 89.4449C106.496 88.7609 107.785 87.9827 107.97 87.6815C107.945 87.6654 107.908 87.6435 107.845 87.6183C107.702 87.5642 104.152 86.1848 104.607 83.3224C104.609 83.3052 104.614 83.2891 104.619 83.273L110.122 64.9264C110.178 64.739 110.368 64.6252 110.557 64.6609C110.614 64.6712 116.258 65.7161 118.318 63.9493C118.767 63.5619 119.021 59.9753 119.129 58.4442C119.156 58.0706 119.18 57.7269 119.204 57.4326C119.258 56.7635 119.68 55.314 120.329 54.8093L122.725 52.7321C122.957 52.5505 123.124 52.2734 123.145 52.0458C123.161 51.8803 123.093 51.8044 123.071 51.7791C120.259 48.5892 119.924 46.558 119.568 44.4072C119.417 43.491 119.26 42.5438 118.889 41.4862C118.01 38.9825 116.478 37.7801 115.428 37.7226C115.225 37.7111 114.867 37.7364 114.727 38.0284C109.905 48.0834 102.536 49.3329 101.715 49.1352C100.716 48.8984 100.292 48.1087 99.8815 47.3442C99.4814 46.5993 99.0676 45.8291 98.0974 45.344C97.8376 45.213 97.5479 45.1486 97.2421 45.1486Z" fill="black"/>
<path d="M110.488 65.417C110.469 65.417 110.448 65.4158 110.427 65.4124C108.309 65.071 106.633 64.2721 105.446 63.0363C105.3 62.8846 105.305 62.6432 105.457 62.4972C105.608 62.3512 105.85 62.3558 105.996 62.5075C107.065 63.6203 108.597 64.3433 110.548 64.6583C110.756 64.6916 110.897 64.8871 110.863 65.0951C110.834 65.2837 110.672 65.417 110.488 65.417Z" fill="black"/>
<path d="M103.476 150.84C93.699 156.422 65.241 175.625 44.731 171.783C40.3041 170.955 38.1568 161.311 37.9579 153.454C37.8487 149.166 39.6305 137.856 40.2099 133.304C40.672 129.672 44.9804 129.728 44.9804 129.728C55.762 129.407 58.799 132.092 59.9175 133.226C59.9175 133.226 61.4096 134.641 61.0866 137.492C60.8567 139.522 60.1348 142.535 59.8543 145.752C59.7853 146.542 59.7968 147.23 59.8693 147.83C60.1796 150.405 62.7109 152.101 65.2215 151.447C71.3002 149.863 108.762 139.811 108.828 139.796C110.814 139.348 112.786 138.317 115.66 137.972C117.855 137.709 126.654 138.154 126.875 138.942C127.193 140.077 126.465 140.592 125.061 141.155C123.67 141.713 118.33 142.189 118.33 142.189C118.79 142.86 126.006 146.451 129.72 146.497C132.098 146.527 137.201 147.755 135.706 150.017C133.793 152.915 124.677 154.598 119.467 154.095C116.538 153.813 111.733 151.823 107.506 150.1C105.925 149.454 103.476 150.84 103.476 150.84Z" fill="white"/>
<path d="M50.3674 172.662C48.412 172.662 46.5038 172.502 44.6599 172.157C40.0974 171.302 37.7891 161.868 37.5753 153.462C37.4891 150.09 38.5386 142.583 39.3054 137.102C39.5192 135.575 39.7031 134.257 39.8307 133.255C40.3307 129.33 44.9358 129.354 44.9852 129.345C56.2875 129.007 59.2245 131.98 60.189 132.956C60.2465 133.011 61.8064 134.527 61.4661 137.532C61.373 138.355 61.2052 139.309 61.0098 140.413C60.7247 142.032 60.4017 143.868 60.2338 145.782C60.1706 146.509 60.1752 147.181 60.2476 147.782C60.381 148.891 60.9902 149.888 61.9167 150.519C62.8559 151.159 64.025 151.361 65.124 151.075C69.9865 149.807 95.2476 143.037 104.757 140.489C108.612 139.455 108.725 139.425 108.743 139.422C109.465 139.259 110.195 139.014 110.969 138.754C112.283 138.313 113.772 137.812 115.613 137.591C116.722 137.457 119.422 137.494 122.033 137.679C127.015 138.031 127.161 138.555 127.24 138.837C127.671 140.373 126.469 140.998 125.201 141.506C124.141 141.931 121.002 142.298 119.368 142.467C121.341 143.612 126.739 146.075 129.723 146.112C131.543 146.135 135.303 146.858 136.171 148.495C136.373 148.877 136.511 149.485 136.024 150.223C133.951 153.36 124.529 154.962 119.43 154.47C116.542 154.191 111.886 152.293 107.778 150.618L107.361 150.448C105.984 149.887 103.723 151.136 103.663 151.169C102.525 151.818 101.135 152.652 99.5261 153.617C88.8435 160.027 67.7794 172.662 50.3674 172.662ZM44.9749 130.107C44.6519 130.107 40.9917 130.174 40.5871 133.35C40.4595 134.357 40.2744 135.678 40.0606 137.207C39.2985 142.661 38.2535 150.132 38.3386 153.442C38.5513 161.807 40.8388 170.664 44.8013 171.405C46.6003 171.742 48.4695 171.899 50.3811 171.899C67.5679 171.9 88.5147 159.334 99.1353 152.963C100.749 151.995 102.142 151.16 103.287 150.506C103.287 150.506 103.289 150.506 103.289 150.505C103.395 150.445 105.919 149.035 107.651 149.741L108.067 149.911C112.126 151.567 116.728 153.443 119.505 153.711C124.965 154.237 133.649 152.437 135.389 149.802C135.695 149.34 135.599 149.039 135.5 148.851C134.88 147.681 131.66 146.898 129.718 146.873C126.103 146.828 118.627 143.287 118.019 142.398C117.942 142.286 117.93 142.143 117.989 142.02C118.046 141.897 118.165 141.814 118.3 141.803C118.353 141.798 123.6 141.325 124.923 140.796C126.471 140.175 126.693 139.763 126.53 139.108C125.66 138.542 117.968 138.073 115.709 138.345C113.946 138.556 112.496 139.044 111.217 139.474C110.425 139.74 109.675 139.992 108.916 140.163C108.87 140.175 107.314 140.592 104.959 141.223C95.4487 143.772 70.1865 150.542 65.3205 151.81C64.0077 152.153 62.6122 151.91 61.4914 151.147C60.3821 150.392 59.6545 149.197 59.4947 147.871C59.4153 147.218 59.4107 146.493 59.4786 145.713C59.6487 143.766 59.9752 141.913 60.2626 140.278C60.4545 139.186 60.6212 138.244 60.712 137.443C61.0075 134.835 59.7131 133.55 59.6579 133.496C58.744 132.571 55.9851 129.777 44.9956 130.104C44.9875 130.107 44.9818 130.107 44.9749 130.107Z" fill="black"/>
<path d="M177.075 71.5381C184.939 63.674 184.939 50.9237 177.075 43.0595C169.211 35.1954 156.461 35.1954 148.597 43.0595C140.733 50.9237 140.733 63.674 148.597 71.5381C156.461 79.4023 169.211 79.4023 177.075 71.5381Z" fill="white"/>
<path d="M162.839 37.9223C173.523 37.9223 182.213 46.6139 182.213 57.2966C182.213 67.9804 173.521 76.6709 162.839 76.6709C152.156 76.6709 143.464 67.9792 143.464 57.2966C143.464 46.6139 152.156 37.9223 162.839 37.9223ZM162.839 37.1602C151.717 37.1602 142.701 46.176 142.701 57.2977C142.701 68.4195 151.717 77.4353 162.839 77.4353C173.961 77.4353 182.976 68.4195 182.976 57.2977C182.976 46.176 173.961 37.1602 162.839 37.1602Z" fill="black"/>
<path d="M161.736 71.2169C160.85 71.2169 160.029 70.749 159.579 69.9846L151.18 55.7441C150.477 54.5521 150.873 53.0163 152.065 52.3139C153.257 51.6104 154.793 52.007 155.495 53.1991L161.657 63.6449L171.051 46.4996C171.715 45.2856 173.239 44.8408 174.453 45.5064C175.666 46.1708 176.11 47.6939 175.446 48.9078L163.934 69.9168C163.501 70.7065 162.678 71.2043 161.777 71.218C161.763 71.2169 161.749 71.2169 161.736 71.2169Z" fill="#5479F7"/>
<path d="M193.201 37.106C193.142 37.106 193.083 37.0922 193.026 37.0635C192.839 36.9669 192.766 36.737 192.863 36.5497L193.77 34.7978C193.867 34.6104 194.098 34.538 194.284 34.6345C194.471 34.7311 194.544 34.961 194.447 35.1484L193.54 36.9003C193.471 37.0313 193.338 37.106 193.201 37.106Z" fill="black"/>
<path d="M191.092 41.1881C191.033 41.1881 190.973 41.1743 190.917 41.1455C190.73 41.049 190.657 40.8191 190.754 40.6317L191.66 38.8798C191.756 38.6924 191.986 38.62 192.173 38.7166C192.361 38.8131 192.433 39.043 192.337 39.2304L191.43 40.9823C191.363 41.1134 191.23 41.1881 191.092 41.1881Z" fill="black"/>
<path d="M191.435 37.6682C191.377 37.6682 191.317 37.6544 191.261 37.6257L189.509 36.7198C189.321 36.6233 189.249 36.3934 189.345 36.206C189.442 36.0186 189.672 35.9462 189.859 36.0427L191.611 36.9486C191.799 37.0451 191.871 37.275 191.774 37.4624C191.705 37.5935 191.573 37.6682 191.435 37.6682Z" fill="black"/>
<path d="M195.515 39.7795C195.457 39.7795 195.397 39.7657 195.341 39.737L193.589 38.8311C193.401 38.7346 193.329 38.5047 193.426 38.3173C193.522 38.1299 193.753 38.0575 193.939 38.1541L195.691 39.0599C195.879 39.1565 195.951 39.3864 195.855 39.5737C195.787 39.7048 195.653 39.7795 195.515 39.7795Z" fill="black"/>
<path d="M187.202 184.172C187.1 184.172 186.996 184.131 186.921 184.049C186.779 183.894 186.788 183.653 186.943 183.51C194.007 176.999 199.408 169.184 202.994 160.282C203.072 160.087 203.294 159.992 203.491 160.071C203.686 160.149 203.78 160.372 203.702 160.568C200.073 169.575 194.609 177.483 187.46 184.071C187.387 184.139 187.295 184.172 187.202 184.172Z" fill="black"/>
<path d="M164.626 197.288C164.5 197.288 164.376 197.226 164.304 197.112C164.191 196.935 164.243 196.698 164.42 196.586C164.658 196.434 188.274 181.199 197.13 160.616C197.213 160.422 197.437 160.333 197.631 160.416C197.824 160.498 197.914 160.724 197.831 160.917C188.882 181.719 165.07 197.077 164.831 197.228C164.767 197.27 164.696 197.288 164.626 197.288Z" fill="black"/>
<path d="M178.885 24.1958C178.785 24.1958 178.685 24.1567 178.609 24.0785C171.969 17.1457 164.143 11.6302 155.977 8.12869C155.784 8.04593 155.694 7.82177 155.777 7.62749C155.86 7.43322 156.084 7.34471 156.278 7.42748C164.538 10.9692 172.451 16.5445 179.16 23.552C179.306 23.7038 179.3 23.9452 179.148 24.0912C179.075 24.1613 178.979 24.1958 178.885 24.1958Z" fill="black"/>
<path d="M186.435 27.4356C186.316 27.4356 186.2 27.3804 186.125 27.2781C178.006 16.0862 166.612 7.60146 152.258 2.05954C152.061 1.98367 151.964 1.76296 152.039 1.56639C152.115 1.36982 152.336 1.27211 152.533 1.34798C167.027 6.94392 178.537 15.5172 186.743 26.8298C186.867 26.9999 186.829 27.239 186.658 27.362C186.59 27.4126 186.512 27.4356 186.435 27.4356Z" fill="black"/>
<path d="M11.1213 182.387C10.3879 182.387 9.66258 182.059 9.18207 181.435C8.36015 180.367 8.56017 178.83 9.62809 178.008C10.696 177.186 12.2329 177.386 13.0549 178.454C13.8768 179.522 13.6768 181.059 12.6088 181.881C12.1663 182.221 11.6421 182.387 11.1213 182.387ZM10.0937 178.612C9.3591 179.177 9.22116 180.235 9.78673 180.969C10.3523 181.704 11.4099 181.842 12.1444 181.276C12.879 180.711 13.0158 179.653 12.4514 178.919C11.8858 178.184 10.8282 178.045 10.0937 178.612Z" fill="black"/>
</svg>
