<svg width="24" height="24" viewBox="0 0 24 24" fill="none" xmlns="http://www.w3.org/2000/svg">
<g clip-path="url(#clip0_0_8747)">
<path d="M19.0002 8V7C19.0002 5.14348 18.2627 3.36301 16.95 2.05025C15.6372 0.737498 13.8568 0 12.0002 0C10.1437 0 8.36325 0.737498 7.0505 2.05025C5.73774 3.36301 5.00024 5.14348 5.00024 7V8H2.00024V21C2.00024 21.7956 2.31631 22.5587 2.87892 23.1213C3.44153 23.6839 4.20459 24 5.00024 24H19.0002C19.7959 24 20.559 23.6839 21.1216 23.1213C21.6842 22.5587 22.0002 21.7956 22.0002 21V8H19.0002ZM7.00024 7C7.00024 5.67392 7.52703 4.40215 8.46471 3.46447C9.40239 2.52678 10.6742 2 12.0002 2C13.3263 2 14.5981 2.52678 15.5358 3.46447C16.4735 4.40215 17.0002 5.67392 17.0002 7V8H7.00024V7ZM20.0002 21C20.0002 21.2652 19.8949 21.5196 19.7074 21.7071C19.5198 21.8946 19.2655 22 19.0002 22H5.00024C4.73503 22 4.48067 21.8946 4.29314 21.7071C4.1056 21.5196 4.00024 21.2652 4.00024 21V10H20.0002V21Z" fill="#84849A"/>
<path d="M13.0003 13.9995H11.0002V17.9995H13.0003V13.9995Z" fill="#84849A"/>
</g>
<defs>
<clipPath id="clip0_0_8747">
<rect width="24" height="24" fill="white"/>
</clipPath>
</defs>
</svg>
